<svg width="20.000000" height="20.000000" viewBox="0 0 20 20" fill="none" xmlns="http://www.w3.org/2000/svg" xmlns:xlink="http://www.w3.org/1999/xlink">
	<desc>
			Created with Pixso.
	</desc>
	<defs>
		<clipPath id="clip11_245">
			<rect id="fi_10629607" width="20.000000" height="20.000000" fill="white" fill-opacity="0"/>
		</clipPath>
	</defs>
	<rect id="fi_10629607" width="20.000000" height="20.000000" fill="#FFFFFF" fill-opacity="0"/>
	<g clip-path="url(#clip11_245)">
		<path id="Vector" d="M19.37 10C19.37 10.8 18.39 11.45 18.19 12.19C17.99 12.95 18.5 14.02 18.12 14.68C17.72 15.36 16.54 15.44 15.99 15.99C15.44 16.54 15.36 17.72 14.68 18.12C14.02 18.5 12.95 17.99 12.19 18.19C11.45 18.39 10.8 19.37 10 19.37C9.2 19.37 8.54 18.39 7.8 18.19C7.04 17.99 5.97 18.5 5.31 18.12C4.63 17.72 4.55 16.54 4 15.99C3.45 15.44 2.27 15.36 1.87 14.68C1.49 14.02 2 12.95 1.8 12.19C1.6 11.45 0.62 10.8 0.62 10C0.62 9.2 1.6 8.54 1.8 7.8C2 7.04 1.49 5.97 1.87 5.31C2.27 4.63 3.45 4.55 4 4C4.55 3.45 4.63 2.27 5.31 1.87C5.97 1.49 7.04 2 7.8 1.8C8.54 1.6 9.2 0.62 10 0.62C10.8 0.62 11.45 1.6 12.19 1.8C12.95 2 14.02 1.49 14.68 1.87C15.36 2.27 15.44 3.45 15.99 4C16.54 4.55 17.72 4.63 18.12 5.31C18.5 5.97 17.99 7.04 18.19 7.8C18.39 8.54 19.37 9.2 19.37 10Z" fill="#2568EF" fill-opacity="1.000000" fill-rule="nonzero"/>
		<path id="Vector" d="M12.7 7.2L9.14 10.77L7.29 8.92C6.88 8.52 6.23 8.52 5.83 8.92C5.43 9.32 5.43 9.97 5.83 10.38L8.43 12.97C8.82 13.36 9.45 13.36 9.84 12.97L14.16 8.66C14.56 8.25 14.56 7.6 14.16 7.2C13.76 6.8 13.11 6.8 12.7 7.2Z" fill="#FFFCEE" fill-opacity="1.000000" fill-rule="nonzero"/>
	</g>
</svg>
